<svg width="40" height="40" viewBox="0 0 40 40" fill="none" xmlns="http://www.w3.org/2000/svg">
<path d="M6.66667 10L16.8467 17.6867L16.85 17.69C17.98 18.5184 18.545 18.9334 19.165 19.0934C19.7126 19.2351 20.2874 19.2351 20.835 19.0934C21.455 18.9334 22.0217 18.5184 23.155 17.6867C23.155 17.6867 29.6833 12.6767 33.3333 10M5 26.3334V13.6667C5 11.8 5 10.8667 5.36333 10.1534C5.68333 9.52504 6.19167 9.01671 6.82 8.69671C7.53333 8.33337 8.46667 8.33337 10.3333 8.33337H29.6667C31.5333 8.33337 32.4667 8.33337 33.1783 8.69671C33.8067 9.01671 34.3167 9.52504 34.6367 10.1534C35 10.865 35 11.7984 35 13.6617V26.34C35 28.2034 35 29.1334 34.6367 29.8467C34.3167 30.4741 33.8061 30.9841 33.1783 31.3034C32.4667 31.6667 31.535 31.6667 29.6717 31.6667H10.3283C8.465 31.6667 7.53167 31.6667 6.82 31.3034C6.19282 30.9838 5.68291 30.4739 5.36333 29.8467C5 29.1334 5 28.2 5 26.3334Z" stroke="black" stroke-width="2" stroke-linecap="round" stroke-linejoin="round"/>
</svg>
